<mxfile host="app.diagrams.net" modified="2024-07-18T07:50:23.009Z" agent="Mozilla/5.0 (Windows NT 10.0; Win64; x64) AppleWebKit/537.36 (KHTML, like Gecko) Chrome/122.0.0.0 Safari/537.36" etag="OaPBsqhdIKT3M4K7LqlX" version="24.7.1" type="device">
  <diagram name="Page-1" id="vZPMhGDREo8EWLql1qD5">
    <mxGraphModel dx="1050" dy="522" grid="1" gridSize="10" guides="1" tooltips="1" connect="1" arrows="1" fold="1" page="1" pageScale="1" pageWidth="850" pageHeight="1100" math="0" shadow="0">
      <root>
        <mxCell id="0" />
        <mxCell id="1" parent="0" />
        <mxCell id="iHGAN4kBEaVsU0-Bncsz-1" value="" style="endArrow=none;html=1;rounded=0;" edge="1" parent="1">
          <mxGeometry width="50" height="50" relative="1" as="geometry">
            <mxPoint x="260" y="250" as="sourcePoint" />
            <mxPoint x="360" y="150" as="targetPoint" />
            <Array as="points" />
          </mxGeometry>
        </mxCell>
        <mxCell id="iHGAN4kBEaVsU0-Bncsz-2" value="Plant" style="text;html=1;align=center;verticalAlign=middle;resizable=0;points=[];autosize=1;strokeColor=none;fillColor=none;fontSize=50;" vertex="1" parent="1">
          <mxGeometry x="355" y="80" width="140" height="70" as="geometry" />
        </mxCell>
        <mxCell id="iHGAN4kBEaVsU0-Bncsz-3" value="&lt;span style=&quot;font-size: 50px;&quot;&gt;Leaf&lt;/span&gt;" style="text;html=1;align=center;verticalAlign=middle;resizable=0;points=[];autosize=1;strokeColor=none;fillColor=none;" vertex="1" parent="1">
          <mxGeometry x="180" y="238" width="120" height="70" as="geometry" />
        </mxCell>
        <mxCell id="iHGAN4kBEaVsU0-Bncsz-4" value="" style="endArrow=none;html=1;rounded=0;" edge="1" parent="1">
          <mxGeometry width="50" height="50" relative="1" as="geometry">
            <mxPoint x="429.5" y="250" as="sourcePoint" />
            <mxPoint x="429.5" y="150" as="targetPoint" />
          </mxGeometry>
        </mxCell>
        <mxCell id="iHGAN4kBEaVsU0-Bncsz-5" value="Stem" style="text;html=1;align=center;verticalAlign=middle;resizable=0;points=[];autosize=1;strokeColor=none;fillColor=none;fontSize=50;" vertex="1" parent="1">
          <mxGeometry x="360" y="238" width="140" height="70" as="geometry" />
        </mxCell>
        <mxCell id="iHGAN4kBEaVsU0-Bncsz-6" value="" style="endArrow=none;html=1;rounded=0;" edge="1" parent="1">
          <mxGeometry width="50" height="50" relative="1" as="geometry">
            <mxPoint x="601.84" y="248" as="sourcePoint" />
            <mxPoint x="494.99789473684206" y="150" as="targetPoint" />
          </mxGeometry>
        </mxCell>
        <mxCell id="iHGAN4kBEaVsU0-Bncsz-7" value="&lt;font style=&quot;font-size: 50px;&quot;&gt;Seed&lt;/font&gt;" style="text;html=1;align=center;verticalAlign=middle;resizable=0;points=[];autosize=1;strokeColor=none;fillColor=none;" vertex="1" parent="1">
          <mxGeometry x="540" y="238" width="140" height="70" as="geometry" />
        </mxCell>
        <mxCell id="iHGAN4kBEaVsU0-Bncsz-8" value="" style="endArrow=none;html=1;rounded=0;" edge="1" parent="1">
          <mxGeometry width="50" height="50" relative="1" as="geometry">
            <mxPoint x="160" y="390" as="sourcePoint" />
            <mxPoint x="230" y="308" as="targetPoint" />
            <Array as="points" />
          </mxGeometry>
        </mxCell>
        <mxCell id="iHGAN4kBEaVsU0-Bncsz-9" value="&lt;font style=&quot;font-size: 50px;&quot;&gt;Pattern&lt;/font&gt;" style="text;html=1;align=center;verticalAlign=middle;resizable=0;points=[];autosize=1;strokeColor=none;fillColor=none;" vertex="1" parent="1">
          <mxGeometry x="40" y="378" width="180" height="70" as="geometry" />
        </mxCell>
        <mxCell id="iHGAN4kBEaVsU0-Bncsz-10" value="" style="endArrow=none;html=1;rounded=0;" edge="1" parent="1">
          <mxGeometry width="50" height="50" relative="1" as="geometry">
            <mxPoint x="310" y="390" as="sourcePoint" />
            <mxPoint x="260" y="308" as="targetPoint" />
          </mxGeometry>
        </mxCell>
        <mxCell id="iHGAN4kBEaVsU0-Bncsz-11" value="&lt;font style=&quot;font-size: 50px;&quot;&gt;Colour&lt;/font&gt;" style="text;html=1;align=center;verticalAlign=middle;resizable=0;points=[];autosize=1;strokeColor=none;fillColor=none;" vertex="1" parent="1">
          <mxGeometry x="240" y="378" width="170" height="70" as="geometry" />
        </mxCell>
        <mxCell id="iHGAN4kBEaVsU0-Bncsz-12" value="" style="endArrow=none;html=1;rounded=0;" edge="1" parent="1">
          <mxGeometry width="50" height="50" relative="1" as="geometry">
            <mxPoint x="610" y="390" as="sourcePoint" />
            <mxPoint x="610" y="300" as="targetPoint" />
          </mxGeometry>
        </mxCell>
        <mxCell id="iHGAN4kBEaVsU0-Bncsz-13" value="&lt;font style=&quot;font-size: 50px;&quot;&gt;Coat&lt;/font&gt;" style="text;html=1;align=center;verticalAlign=middle;resizable=0;points=[];autosize=1;strokeColor=none;fillColor=none;" vertex="1" parent="1">
          <mxGeometry x="545" y="378" width="130" height="70" as="geometry" />
        </mxCell>
      </root>
    </mxGraphModel>
  </diagram>
</mxfile>
